<?xml version="1.0" standalone="no"?>
<!DOCTYPE svg PUBLIC "-//W3C//DTD SVG 20010904//EN"
 "http://www.w3.org/TR/2001/REC-SVG-20010904/DTD/svg10.dtd">
<svg version="1.0" xmlns="http://www.w3.org/2000/svg"
 width="700.000000pt" height="700.000000pt" viewBox="0 0 700.000000 700.000000"
 preserveAspectRatio="xMidYMid meet">
<metadata>
Created by potrace 1.11, written by Peter Selinger 2001-2013
</metadata>
<g transform="translate(0.000000,700.000000) scale(0.100000,-0.100000)"
fill="#000000" stroke="none">
<path d="M6582 6492 c-62 -23 -107 -52 -142 -96 -14 -16 -177 -249 -362 -516
-186 -267 -342 -492 -348 -500 -6 -8 -97 -139 -202 -290 -105 -151 -216 -311
-247 -356 -31 -44 -144 -207 -250 -361 l-195 -281 -80 51 c-45 27 -92 58 -106
67 -31 22 -587 377 -633 405 -18 11 -68 43 -110 70 -179 115 -334 215 -452
290 -69 44 -169 108 -223 143 -164 107 -205 123 -299 124 -73 0 -153 -34 -210
-89 -31 -31 -124 -168 -224 -332 -9 -14 -272 -426 -584 -916 -312 -490 -714
-1121 -894 -1403 -179 -281 -383 -601 -453 -710 -70 -108 -133 -208 -141 -222
-8 -14 -100 -160 -206 -325 -210 -328 -228 -366 -217 -469 11 -111 74 -201
174 -252 50 -25 68 -29 142 -29 78 0 90 3 143 33 59 33 110 83 136 131 8 14
17 28 20 31 4 3 33 48 66 100 32 52 82 131 110 175 201 313 332 518 343 537 7
13 30 49 50 81 43 67 166 260 761 1192 381 598 495 777 681 1070 154 244 400
627 407 634 4 6 40 -14 153 -87 47 -31 108 -70 135 -87 28 -17 98 -63 157
-101 59 -38 147 -94 195 -125 49 -31 198 -127 332 -213 134 -86 245 -156 248
-156 2 0 9 -5 16 -10 15 -13 218 -145 232 -151 6 -2 64 -40 130 -83 66 -43
140 -88 165 -99 87 -39 217 -27 295 27 61 42 57 37 424 566 64 93 354 511 381
550 6 8 59 85 118 170 59 85 211 304 337 485 550 792 614 887 627 923 22 63
16 179 -12 237 -71 146 -241 219 -388 167z"/>
<path d="M223 3641 c-144 -49 -226 -167 -219 -313 5 -107 57 -195 149 -255 31
-19 226 -77 357 -106 14 -3 62 -15 108 -26 46 -12 89 -21 95 -21 7 0 28 26 46
58 19 31 64 103 100 159 37 56 91 141 121 189 30 48 65 102 77 120 l22 33 -37
10 c-20 6 -48 12 -62 15 -14 3 -153 37 -310 76 -318 80 -370 87 -447 61z"/>
<path d="M2587 2888 c-64 -101 -121 -190 -127 -198 -31 -44 -109 -174 -107
-176 2 -2 85 -23 185 -48 168 -42 219 -58 232 -76 4 -5 525 -409 940 -729 47
-36 159 -123 250 -194 91 -70 178 -138 194 -150 71 -53 174 -133 202 -156 17
-14 42 -34 55 -43 13 -10 96 -74 184 -142 191 -150 234 -170 345 -164 85 5
145 31 216 96 22 20 73 66 114 102 40 36 78 70 84 75 14 14 409 369 455 410
19 16 41 37 50 45 9 9 61 56 116 105 55 50 102 92 105 95 3 3 48 43 100 90 52
47 97 87 100 90 3 3 45 41 95 85 49 44 112 101 140 126 27 26 70 64 94 85 24
22 56 50 71 64 15 14 63 56 106 95 184 163 207 202 208 335 0 76 -3 91 -29
138 -61 113 -159 174 -278 174 -90 1 -174 -34 -247 -103 -14 -13 -90 -82 -170
-154 -80 -71 -150 -134 -156 -140 -6 -5 -51 -46 -99 -90 -48 -44 -96 -87 -105
-95 -53 -46 -168 -149 -195 -175 -18 -16 -61 -55 -95 -85 -64 -56 -78 -69
-166 -149 -27 -25 -88 -80 -134 -121 -46 -41 -91 -82 -100 -90 -9 -8 -56 -51
-105 -95 -50 -44 -112 -100 -138 -125 -27 -25 -55 -48 -62 -53 -9 -4 -39 13
-87 51 -40 31 -85 66 -99 77 -34 25 -190 146 -207 160 -7 5 -18 15 -25 20 -7
6 -39 30 -72 55 -33 25 -69 52 -80 62 -11 9 -144 112 -295 229 -421 325 -427
330 -720 557 -151 117 -288 220 -305 229 -31 17 -226 70 -286 79 l-36 5 -116
-183z"/>
</g>
</svg>
